<?xml version="1.0" standalone="no"?>
<!DOCTYPE svg PUBLIC "-//W3C//DTD SVG 20010904//EN"
 "http://www.w3.org/TR/2001/REC-SVG-20010904/DTD/svg10.dtd">
<svg version="1.0" xmlns="http://www.w3.org/2000/svg"
 width="600.000000pt" height="600.000000pt" viewBox="0 0 600.000000 600.000000"
 preserveAspectRatio="xMidYMid meet">
<metadata>
Created by potrace 1.11, written by Peter Selinger 2001-2013
</metadata>
<g transform="translate(0.000000,600.000000) scale(0.100000,-0.100000)"
fill="#000000" stroke="none">
<path d="M2490 5466 c-262 -127 -861 -418 -1333 -646 l-857 -415 3 -364 2
-364 180 -93 180 -93 -208 -100 -207 -100 6 -773 c4 -425 10 -777 14 -781 7
-8 649 -339 2008 -1034 l793 -406 237 116 c130 63 658 320 1172 570 514 250
1005 489 1090 531 l155 76 -3 538 c-1 295 -5 646 -9 780 l-6 243 -131 66 c-72
36 -151 77 -175 91 l-43 25 201 98 201 98 0 363 0 364 -157 81 c-893 459
-2459 1266 -2538 1308 l-100 52 -475 -231z"/>
</g>
</svg>
